<svg id="Layer_1" data-name="Layer 1" xmlns="http://www.w3.org/2000/svg" viewBox="0 0 300 300"><defs><style>.cls-1{fill:#2da6b0;}.cls-2{fill:#9bd8dc;}.cls-3{fill:#361784;}.cls-4{fill:#0c0044;}</style></defs><title>Artboard 13</title><g id="Group_168" data-name="Group 168"><path id="Path_61" data-name="Path 61" class="cls-1" d="M165.49,288.6A20,20,0,0,1,150,269.1v-75A34.2,34.2,0,0,1,160,170V145H140V261.65L90,295H193.33Z"/><path id="Path_62" data-name="Path 62" class="cls-1" d="M196.18,90a50,50,0,0,1-70.64,2.82c-1.08-1-2.12-2-3.1-3.12l-45-49.65H40L149.14,160,260,40h-17.7Z"/><path id="Path_63" data-name="Path 63" class="cls-2" d="M150,65a379.9,379.9,0,0,0-90.94-4l90.09,99,83.54-90.44A378.41,378.41,0,0,1,150,65Z"/><path id="Path_64" data-name="Path 64" class="cls-3" d="M170,100a20,20,0,1,1-20-20A20,20,0,0,1,170,100Z"/><g id="Group_167" data-name="Group 167"><path id="Path_65" data-name="Path 65" class="cls-4" d="M264.58,38a5,5,0,0,0-4.6-3h-45.7l24.4-26.6a5,5,0,0,0-7.4-6.8L200.68,35H40a5,5,0,0,0-5,5,5,5,0,0,0,1.29,3.33L135,151.87V259L87.24,290.85A5,5,0,0,0,90,300H210a5,5,0,0,0,2.75-9.15L165,259V150l71.44-77.09,27.2-29.5A5,5,0,0,0,264.58,38Zm-73,7L175,63.22c-8.1-.85-16.1-1.8-24.1-3.15a384.38,384.38,0,0,0-89.64-4.25L51.24,45Zm-42.35,107.6-21.45-23.55,1-.65,7.15-7.85A24.93,24.93,0,0,0,175,100a24.62,24.62,0,0,0-5.8-15.8l9.65-10.55c11,1,22.1,1.45,33.2,1.45h8.85Zm9.7-64.6a9.63,9.63,0,1,0,.05,0Zm2.5-10A24.29,24.29,0,0,0,150,75a25,25,0,0,0-25,25h0a24.81,24.81,0,0,0,3.9,13.3l-7.6,8.3L70,65.32a373.07,373.07,0,0,1,79.2,4.7q8.55,1.4,17.25,2.4ZM157.24,266,193.48,290h-87l36.25-24.15a5,5,0,0,0,2.25-4.2V162.86l.45.5a5,5,0,0,0,7.1.35q.15-.14.3-.3l2.15-2.35v100.6a5,5,0,0,0,2.25,4.2Zm73.2-201.33a375.27,375.27,0,0,1-42.95-.4L205,45h43.45Z"/><path id="Path_66" data-name="Path 66" class="cls-4" d="M155,100a5,5,0,1,1-5-5A5,5,0,0,1,155,100Z"/></g></g></svg>