<svg xmlns="http://www.w3.org/2000/svg" width="250" height="250" viewBox="0 0 250 250">
  <g id="Group_170" data-name="Group 170" transform="translate(65.38 -1368.613)">
    <path id="Path_67" data-name="Path 67" d="M147.12,1556.113a12.5,12.5,0,1,1-12.5-12.5A12.5,12.5,0,0,1,147.12,1556.113Z" fill="#9bd8dc"/>
    <path id="Path_68" data-name="Path 68" d="M126.287,1568.613h16.667a8.334,8.334,0,0,1,8.333,8.334v16.666H117.954v-16.666A8.334,8.334,0,0,1,126.287,1568.613Z" fill="#9bd8dc"/>
    <path id="Path_69" data-name="Path 69" d="M51.287,1543.613A70.832,70.832,0,0,1-3.754,1428.239a70.833,70.833,0,1,0,68.416,114.082A70.715,70.715,0,0,1,51.287,1543.613Z" fill="#361784"/>
    <path id="Path_70" data-name="Path 70" d="M30.454,1468.613A20.834,20.834,0,1,1,9.62,1447.78,20.835,20.835,0,0,1,30.454,1468.613Z" fill="#fff"/>
    <path id="Path_71" data-name="Path 71" d="M-2.88,1489.447h25a16.667,16.667,0,0,1,16.667,16.666v33.334H-19.546v-33.334A16.667,16.667,0,0,1-2.88,1489.447Z" fill="#fff"/>
    <path id="Path_72" data-name="Path 72" d="M17.954,1489.447H1.287l4.167,12.5-4.167,25,8.333,12.5,8.334-12.5-4.167-25Z" fill="#2da6b0"/>
    <path id="Path_73" data-name="Path 73" d="M147.12,1406.113a12.5,12.5,0,1,1-12.5-12.5A12.5,12.5,0,0,1,147.12,1406.113Z" fill="#9bd8dc"/>
    <path id="Path_74" data-name="Path 74" d="M126.287,1418.613h16.667a8.334,8.334,0,0,1,8.333,8.334v16.666H117.954v-16.666A8.334,8.334,0,0,1,126.287,1418.613Z" fill="#9bd8dc"/>
    <g id="Group_169" data-name="Group 169">
      <path id="Path_75" data-name="Path 75" d="M117.954,1447.78h33.333a4.168,4.168,0,0,0,4.167-4.167v-16.666a12.5,12.5,0,0,0-7.168-11.292,16.666,16.666,0,1,0-27.331,0,12.5,12.5,0,0,0-7.168,11.292v16.666A4.168,4.168,0,0,0,117.954,1447.78Zm29.166-8.333h-25v-12.5a4.167,4.167,0,0,1,4.167-4.167h16.667a4.167,4.167,0,0,1,4.166,4.167Zm-12.5-41.667a8.333,8.333,0,1,1-8.333,8.333A8.334,8.334,0,0,1,134.62,1397.78Z" fill="#0c0044"/>
      <path id="Path_76" data-name="Path 76" d="M134.62,1468.613a50,50,0,1,0-50-50A50,50,0,0,0,134.62,1468.613Zm0-91.666a41.667,41.667,0,1,1-41.666,41.666A41.666,41.666,0,0,1,134.62,1376.947Z" fill="#0c0044"/>
      <path id="Path_77" data-name="Path 77" d="M148.286,1565.655a16.666,16.666,0,1,0-27.331,0,12.5,12.5,0,0,0-7.168,11.292v16.666a4.168,4.168,0,0,0,4.167,4.167h33.333a4.168,4.168,0,0,0,4.167-4.167v-16.666A12.5,12.5,0,0,0,148.286,1565.655ZM134.62,1547.78a8.333,8.333,0,1,1-8.333,8.333A8.334,8.334,0,0,1,134.62,1547.78Zm12.5,41.667h-25v-12.5a4.167,4.167,0,0,1,4.167-4.167h16.667a4.167,4.167,0,0,1,4.166,4.167Z" fill="#0c0044"/>
      <path id="Path_78" data-name="Path 78" d="M134.62,1518.613a50,50,0,1,0,50,50A50,50,0,0,0,134.62,1518.613Zm0,91.667a41.667,41.667,0,1,1,41.667-41.667A41.666,41.666,0,0,1,134.62,1610.28Z" fill="#0c0044"/>
      <path id="Path_79" data-name="Path 79" d="M-19.546,1543.613H38.787a4.167,4.167,0,0,0,4.167-4.166v-33.334a20.835,20.835,0,0,0-15.375-20.125,25,25,0,1,0-35.917,0,20.835,20.835,0,0,0-15.375,20.125v33.334A4.167,4.167,0,0,0-19.546,1543.613Zm29.166-43-2.541-7h5.083l-2.334,7a4.652,4.652,0,0,0,0,2l3.959,23.374-4.167,5.959-3.959-5.959,3.959-23.374A4.652,4.652,0,0,0,9.62,1500.614Zm25,5.5v29.167H17.413l4.166-6.043a4.159,4.159,0,0,0,.666-2.958l-4.167-24,2.877-8.667H22.12A12.5,12.5,0,0,1,34.62,1506.113Zm-25-54.166a16.667,16.667,0,1,1-16.666,16.666A16.667,16.667,0,0,1,9.62,1451.947Zm-25,54.166a12.5,12.5,0,0,1,12.5-12.5h1.166l3,8.667-4.167,24a4.17,4.17,0,0,0,.668,2.958l4.166,6.043H-15.38Z" fill="#0c0044"/>
      <path id="Path_80" data-name="Path 80" d="M9.62,1572.78a75,75,0,1,0-75-75A75,75,0,0,0,9.62,1572.78Zm0-141.667a66.667,66.667,0,1,1-66.666,66.667A66.668,66.668,0,0,1,9.62,1431.113Z" fill="#0c0044"/>
      <path id="Path_81" data-name="Path 81" d="M130.454,1481.113v25a4.167,4.167,0,1,0,8.333,0v-25a4.167,4.167,0,0,0-8.333,0Z" fill="#0c0044"/>
      <path id="Path_82" data-name="Path 82" d="M13.787,1414.447a4.167,4.167,0,0,0,4.167-4.167v-8.333a12.5,12.5,0,0,1,12.5-12.5H76.287a4.167,4.167,0,1,0,0-8.334H30.454A20.835,20.835,0,0,0,9.62,1401.947v8.333A4.167,4.167,0,0,0,13.787,1414.447Z" fill="#0c0044"/>
    </g>
  </g>
</svg>
