<svg id="Layer_1" data-name="Layer 1" xmlns="http://www.w3.org/2000/svg" xmlns:xlink="http://www.w3.org/1999/xlink" viewBox="0 0 250 123.34"><defs><style>.cls-1{fill:#dee0e0;}.cls-2{fill:url(#linear-gradient);}</style><linearGradient id="linear-gradient" x1="851.73" y1="477.9" x2="1072.33" y2="605.26" gradientUnits="userSpaceOnUse"><stop offset="0" stop-color="#0c0044"/><stop offset="0.09" stop-color="#1d095e"/><stop offset="0.21" stop-color="#2f137a"/><stop offset="0.28" stop-color="#361784"/><stop offset="0.71" stop-color="#2da6b0"/><stop offset="0.72" stop-color="#31a8b1"/><stop offset="0.78" stop-color="#57b9c1"/><stop offset="0.84" stop-color="#75c7cd"/><stop offset="0.89" stop-color="#8ad0d5"/><stop offset="0.95" stop-color="#97d6da"/><stop offset="1" stop-color="#9bd8dc"/></linearGradient></defs><title>404_numbers</title><path class="cls-1" d="M918.65,479.4v98.31H903.7a5,5,0,0,1-5-5.05v-2.8h0v-32h-9.82l-22.88.35a4.78,4.78,0,0,1-4.74-4.8V522.29c0-1-.28-4.45-4.09-4.5a.44.44,0,0,1-.31-.08h-5.75a5.06,5.06,0,0,1-5.05-5.09v-23.9h0v-5.78a3.54,3.54,0,0,1,3.54-3.54h13a3.53,3.53,0,0,1,3.53,3.54v5.78c.17,0,0,15.41.17,15.41V514a3.9,3.9,0,0,0,2.3,3.51h30v-34.6a3.53,3.53,0,0,1,3.54-3.54Z" transform="translate(-834.96 -479.27)"/><path class="cls-1" d="M1085,479.4v98.31h-15a5,5,0,0,1-5-5.05v-2.8h0v-32h-9.82l-22.88.35a4.78,4.78,0,0,1-4.74-4.8V522.29c0-1-.28-4.45-4.09-4.5a.44.44,0,0,1-.31-.08h-5.75a5.06,5.06,0,0,1-5-5.09v-23.9h0v-5.78a3.54,3.54,0,0,1,3.54-3.54h13a3.53,3.53,0,0,1,3.53,3.54v5.78c.17,0,0,15.41.17,15.41V514a3.9,3.9,0,0,0,2.3,3.51h30v-34.6a3.53,3.53,0,0,1,3.54-3.54Z" transform="translate(-834.96 -479.27)"/><path class="cls-1" d="M994.27,479.4h-35.9l-22.76-.13A4.68,4.68,0,0,0,931,484l.22,24.89v63.56a5.15,5.15,0,0,0,5.16,5.15h58.47a4.57,4.57,0,0,0,4.58-4.57V484.55A5.16,5.16,0,0,0,994.27,479.4Zm-43.7,28.13.13-3c0-2.77-1.35-5.49-4.07-5.49l11.74-.34h21.71v59.53H950.57Z" transform="translate(-834.96 -479.27)"/><path class="cls-2" d="M907.55,504.29V602.6H892.61a5,5,0,0,1-5-5.05v-2.8h0v-32h-9.82l-22.87.35a4.77,4.77,0,0,1-4.74-4.8V547.18c0-1-.29-4.45-4.1-4.51a.47.47,0,0,1-.31-.07H840a5.07,5.07,0,0,1-5-5.09v-23.9h0v-5.78a3.53,3.53,0,0,1,3.53-3.54h13a3.54,3.54,0,0,1,3.54,3.54v5.78c.16,0,0,15.41.17,15.41v9.9a3.87,3.87,0,0,0,2.29,3.51h30v-34.6a3.54,3.54,0,0,1,3.54-3.54Zm149.81,0a3.54,3.54,0,0,0-3.54,3.54v34.6h-30a3.87,3.87,0,0,1-2.29-3.51V529c-.16,0,0-15.41-.17-15.41v-5.78a3.54,3.54,0,0,0-3.54-3.54h-13a3.53,3.53,0,0,0-3.53,3.54v5.78h-.05v23.9a5.07,5.07,0,0,0,5.05,5.09h5.75a.47.47,0,0,0,.31.07c3.81.06,4.1,3.47,4.1,4.51V558.3a4.77,4.77,0,0,0,4.74,4.8l22.87-.35h9.82v32h0v2.8a5,5,0,0,0,5,5.05h14.95V504.29Zm-69,5.15v88.49a4.58,4.58,0,0,1-4.58,4.57H925.28a5.15,5.15,0,0,1-5.15-5.15V533.79l-.22-24.89a4.67,4.67,0,0,1,4.61-4.74l22.76.13h35.9A5.16,5.16,0,0,1,988.33,509.44Zm-48.86,73.72H969V523.63h-21.7l-11.75.34c2.72,0,4.07,2.72,4.07,5.49l-.13,3Z" transform="translate(-834.96 -479.27)"/></svg>